<?xml version="1.0" standalone="no"?>
<!DOCTYPE svg PUBLIC "-//W3C//DTD SVG 20010904//EN"
 "http://www.w3.org/TR/2001/REC-SVG-20010904/DTD/svg10.dtd">
<svg version="1.0" xmlns="http://www.w3.org/2000/svg"
 width="236.000000pt" height="236.000000pt" viewBox="0 0 236.000000 236.000000"
 preserveAspectRatio="xMidYMid meet">
<metadata>
Created by potrace 1.15, written by Peter Selinger 2001-2017
</metadata>
<g transform="translate(0.000000,236.000000) scale(0.100000,-0.100000)"
fill="#000000" stroke="none">
<path d="M815 2213 c-11 -2 -30 -6 -43 -9 -44 -9 -62 -39 -62 -101 0 -32 -7
-79 -17 -105 -14 -39 -14 -49 -4 -62 28 -34 65 -19 152 59 125 113 177 132
312 110 51 -8 55 -4 36 38 -15 32 -65 55 -147 67 -67 10 -189 11 -227 3z"/>
<path d="M1034 1962 c3 -5 18 -12 33 -15 62 -13 132 -79 120 -111 -3 -8 -15
-19 -26 -25 -18 -10 -19 -9 -14 23 4 26 0 38 -16 53 -51 48 -187 58 -261 21
-59 -30 -86 -73 -100 -161 -18 -110 -28 -144 -54 -174 l-24 -28 -7 48 c-10 66
-1 104 45 179 21 36 42 78 45 94 l7 29 -19 -27 c-10 -15 -38 -53 -63 -84 l-45
-58 -2 -135 c0 -75 -4 -154 -8 -176 -5 -33 -3 -45 15 -68 27 -34 58 -35 105
-3 43 29 133 50 176 41 26 -6 36 -2 66 26 l35 34 -22 -42 -21 -42 21 -48 c14
-30 25 -82 30 -137 9 -105 21 -121 85 -111 22 3 77 10 123 15 119 12 157 37
233 153 34 51 71 103 82 116 l22 24 -21 -11 c-24 -12 -56 -48 -125 -139 -31
-40 -62 -68 -93 -83 -26 -12 -49 -20 -52 -18 -9 9 78 121 140 178 35 33 71 76
80 94 30 64 14 163 -40 233 -32 43 -82 46 -121 7 -32 -32 -38 -26 -19 19 16
40 41 57 84 57 35 0 74 -40 92 -95 7 -20 14 -34 17 -31 3 2 -2 27 -12 55 -37
112 -134 133 -214 47 -25 -26 -30 -60 -17 -111 7 -28 6 -28 -9 5 -46 99 -123
149 -235 151 -51 1 -59 3 -35 9 17 4 58 8 93 9 56 1 67 4 93 30 17 17 29 40
29 55 0 35 -53 92 -103 110 -59 21 -100 29 -93 18z m49 -323 c66 2 127 -44
127 -96 0 -12 14 -42 31 -66 23 -33 31 -57 34 -103 2 -32 2 -50 -1 -39 -3 11
-10 37 -15 57 -5 20 -20 50 -34 66 -20 24 -30 28 -57 24 l-33 -5 24 27 24 26
-27 0 c-19 0 -29 -7 -36 -25 -5 -14 -16 -25 -25 -25 -17 0 -20 16 -5 25 6 3
10 11 10 17 0 6 -9 3 -20 -7 -32 -29 -46 -4 -15 25 14 13 25 29 25 37 0 21
-27 15 -33 -8 -8 -32 -27 -13 -21 21 6 28 5 28 -49 35 -30 4 -70 4 -88 0 -19
-4 -31 -4 -26 1 12 13 89 22 132 17 22 -3 57 -5 78 -4z"/>
<path d="M1644 1694 c8 -160 0 -240 -35 -356 -21 -67 -22 -134 -4 -132 6 1 20
30 32 64 28 80 43 95 117 120 80 26 102 42 116 84 15 46 0 100 -45 163 -20 26
-53 75 -75 109 -22 33 -53 67 -68 74 -15 8 -31 16 -36 19 -5 2 -6 -58 -2 -145z"/>
<path d="M835 1346 c-117 -37 -123 -80 -17 -128 35 -16 87 -45 114 -64 28 -19
59 -34 70 -34 19 0 20 5 16 73 -6 88 -28 134 -73 153 -41 17 -57 17 -110 0z"/>
<path d="M1780 1194 c-30 -26 -31 -26 -53 -8 l-22 19 22 -25 c65 -74 89 -231
50 -332 -24 -61 -76 -108 -121 -108 l-33 0 13 68 c7 37 13 94 13 127 -1 59 -1
59 -14 -31 -21 -140 -42 -208 -103 -339 l-57 -120 2 -95 c1 -52 -3 -111 -9
-130 -11 -34 -12 -34 -18 -10 -7 26 -9 24 -25 -26 -7 -21 -25 -8 -26 19 l0 22
-11 -22 c-15 -30 -28 -29 -28 3 0 14 -4 23 -9 20 -28 -18 -18 83 19 189 45
127 46 194 3 222 -22 15 -30 14 -109 -6 -104 -26 -169 -27 -232 -3 -44 17 -74
35 -167 103 -17 13 -6 -3 24 -34 106 -110 240 -152 359 -113 28 10 64 16 79
14 27 -3 28 -4 28 -68 -1 -49 -9 -85 -34 -150 -40 -103 -45 -166 -15 -207 50
-68 171 -64 207 7 15 30 17 50 11 132 -3 53 -3 110 1 127 6 29 8 30 28 16 31
-21 89 -19 120 5 14 11 31 36 37 56 12 35 9 123 -4 154 -4 10 5 21 31 35 50
27 86 98 91 181 4 61 5 64 31 64 57 0 117 57 128 123 17 110 -122 192 -207
121z m115 -10 c19 -8 45 -55 45 -84 0 -55 -65 -113 -107 -95 -15 6 -11 10 17
19 42 15 66 52 56 89 -7 30 -40 52 -64 42 -15 -6 -14 -8 6 -16 29 -11 30 -54
1 -69 -25 -14 -41 -2 -59 41 -11 27 -10 32 10 54 23 25 61 32 95 19z m-226
-535 c14 -41 14 -95 -1 -122 -11 -21 -11 -21 -18 -2 -7 18 -8 17 -15 -7 -9
-34 -32 -37 -38 -5 l-4 22 -8 -22 c-4 -13 -11 -20 -16 -17 -14 8 -10 49 9 101
11 26 22 56 25 66 4 10 17 17 31 17 18 0 27 -8 35 -31z"/>
<path d="M790 1185 c0 -3 11 -27 25 -54 25 -50 65 -90 117 -117 37 -19 51 -54
35 -88 -14 -31 -43 -34 -50 -6 -7 26 -48 27 -70 2 -19 -21 -22 -43 -7 -58 8
-8 7 -19 -1 -37 -24 -53 42 -80 78 -32 24 34 140 57 155 31 11 -19 53 -21 65
-3 4 6 8 28 9 47 0 19 4 42 8 50 3 9 0 24 -8 35 -12 17 -17 18 -40 7 -14 -6
-26 -18 -26 -26 0 -7 -7 -17 -16 -20 -22 -8 -21 -9 -27 16 -8 30 10 58 37 58
28 0 86 19 86 28 0 4 -35 7 -78 7 -94 1 -126 16 -176 84 -21 28 -51 57 -68 66
-32 16 -48 19 -48 10z"/>
<path d="M634 1084 c3 -113 17 -151 105 -297 50 -84 73 -131 84 -179 6 -24 4
-27 -26 -33 -115 -25 -170 -114 -112 -183 31 -37 70 -47 125 -32 40 11 112 66
130 100 14 27 29 101 19 94 -5 -3 -9 -12 -9 -20 0 -22 -69 -93 -111 -115 -63
-32 -153 -18 -106 16 24 17 21 28 -3 15 -16 -9 -20 -8 -20 6 0 27 47 63 106
80 l55 16 -6 36 c-6 36 -46 120 -154 327 -42 79 -56 118 -67 185 l-13 85 3
-101z"/>
</g>
</svg>
